<svg xmlns="http://www.w3.org/2000/svg" width="607.96" height="85.27" viewBox="0 0 607.96 85.27"><title>r&amp;amp;n logo</title><path d="M12.64,43.53a4.85,4.85,0,0,0-3.14,1,8.93,8.93,0,0,0-2.18,2.54,12.84,12.84,0,0,0-1.68,6.54V68.4H1V38.9H5.64V45l.2-1.2q2.37-5.5,7.31-5.5a7.41,7.41,0,0,1,3,.6V45A5.07,5.07,0,0,0,12.64,43.53Z" transform="translate(-0.95)"/><path d="M45.27,68.4v-5c-.26.34-.54.68-.83,1a13.25,13.25,0,0,1-10.3,4.69,13.25,13.25,0,0,1-10.29-4.69,16.21,16.21,0,0,1,0-21.46,13.25,13.25,0,0,1,10.29-4.69,13.25,13.25,0,0,1,10.3,4.69c.29.34.57.67.83,1v-5H50V68.4Zm-3-22.26a10.14,10.14,0,0,0-14.82,0,11,11,0,0,0,0,15,9.71,9.71,0,0,0,7.41,3.22,9.71,9.71,0,0,0,7.41-3.22,11,11,0,0,0,0-15Z" transform="translate(-0.95)"/><path d="M64,80.51a8.59,8.59,0,0,1-3.29,3.32,7.38,7.38,0,0,1-4,.87,7.08,7.08,0,0,1-3.42-1V79.2a4.67,4.67,0,0,0,2.11,1.11,3.93,3.93,0,0,0,2.42-.17q2.85-1.14,2.85-6V38.9h4.69V74A12.78,12.78,0,0,1,64,80.51ZM65.19,33a3.08,3.08,0,1,1,.87-2.15A2.93,2.93,0,0,1,65.19,33Z" transform="translate(-0.95)"/><path d="M133.05,50A8.94,8.94,0,0,0,131.74,45a4.72,4.72,0,0,0-4.32-2,8.63,8.63,0,0,0-8,4.12c-1.41,2.22-2.11,5.2-2.11,9V68.4h-4.7V38.9h4.7V44a12.61,12.61,0,0,1,3.75-4,9.64,9.64,0,0,1,5.57-1.64,12.27,12.27,0,0,1,5.1.9,9.63,9.63,0,0,1,3.28,2.48A12.32,12.32,0,0,1,137.74,50V68.4h-4.69Z" transform="translate(-0.95)"/><path d="M175.63,55.46H149.68a10,10,0,0,0,3.69,6.24A10.68,10.68,0,0,0,165.07,63a10.83,10.83,0,0,0,3.85-3.26h5.37a15,15,0,0,1-5.67,6.68,14,14,0,0,1-7.71,2.44,16.86,16.86,0,0,1-6.7-1.2,16,16,0,0,1-4.9-3.29,14.65,14.65,0,0,1-4.53-10.86A15.45,15.45,0,0,1,160.21,38.1,15.11,15.11,0,0,1,171,42.45,14.05,14.05,0,0,1,175.63,53ZM166.88,45.2A10.46,10.46,0,0,0,151.16,48a10.26,10.26,0,0,0-1.41,3.45h20.92A10.86,10.86,0,0,0,166.88,45.2Z" transform="translate(-0.95)"/><path d="M212.18,55.46h-26a10,10,0,0,0,3.68,6.24A10.69,10.69,0,0,0,201.62,63a10.92,10.92,0,0,0,3.85-3.26h5.37a15.16,15.16,0,0,1-5.67,6.68,14.09,14.09,0,0,1-7.71,2.44,16.91,16.91,0,0,1-6.71-1.2,16.07,16.07,0,0,1-4.89-3.29,14.65,14.65,0,0,1-4.53-10.86A15.45,15.45,0,0,1,196.75,38.1a15.12,15.12,0,0,1,10.77,4.35A14.09,14.09,0,0,1,212.18,53ZM203.43,45.2A10.47,10.47,0,0,0,187.7,48a10.47,10.47,0,0,0-1.41,3.45h20.92A10.84,10.84,0,0,0,203.43,45.2Z" transform="translate(-0.95)"/><path d="M216.2,38.9h7.38V27.43h4.69V38.9h7.31v4.36h-7.31V68.4h-4.69V43.26H216.2Z" transform="translate(-0.95)"/><path d="M253.75,68.64V1h14V68.64Z" transform="translate(-0.95)"/><path d="M293,68.64H279V1h23.83c10.29,0,19.45,8.86,19.45,21.69,0,11.44-6.45,19-14.49,21.09L326,68.64H308.25L293.1,44.47H293Zm0-55.91v20h7.48c4.11,0,8.41-3.58,8.41-10,0-6.17-4.3-9.95-8.41-9.95Z" transform="translate(-0.95)"/><path d="M392,45.66c-4.3,13.93-16.63,24-31.12,24-18.05,0-32.72-15.61-32.72-34.81S342.83,0,360.88,0c14.49,0,26.73,10,31,23.77H376.3a16.9,16.9,0,0,0-15.42-9.84c-10.29,0-18.51,9.45-18.51,20.89s8.22,20.89,18.51,20.89a17.27,17.27,0,0,0,15.51-10.05Z" transform="translate(-0.95)"/><path d="M429.26,61.39V58.77a3.81,3.81,0,0,1-1.94,2.41,6.43,6.43,0,0,1-3.25.88,7.08,7.08,0,0,1-3.09-.67,7.56,7.56,0,0,1-2.38-1.81,8.49,8.49,0,0,1-2.08-5.84,7.31,7.31,0,0,1,2-5.16,6.74,6.74,0,0,1,5.1-2.28,6,6,0,0,1,5.63,2.82q0-4-1.54-5.47a6.15,6.15,0,0,0-4.36-1.44,13.29,13.29,0,0,0-4.93.84,9.9,9.9,0,0,0-3.58,2.38,11.52,11.52,0,0,0-3.09,8.31A10.92,10.92,0,0,0,415.42,62a11.76,11.76,0,0,0,8.34,3.29h8.72V69h-8.72a16.34,16.34,0,0,1-11.53-4.12,14.41,14.41,0,0,1-4.63-11.1,16,16,0,0,1,4.16-11.4,14.8,14.8,0,0,1,11.33-4.56A10.37,10.37,0,0,1,430,40.06a7.27,7.27,0,0,1,2.75,5.77V61.39Zm-4.59-3.29a3.43,3.43,0,0,0,2.88-1.24,4.38,4.38,0,0,0,0-5.5,4,4,0,0,0-5.76,0,4.35,4.35,0,0,0,0,5.5A3.41,3.41,0,0,0,424.67,58.1Z" transform="translate(-0.95)"/><path d="M453.18,66q6.45,0,6.45-4.82,0-2.81-4.61-4.31c-1.3-.43-2.7-.82-4.19-1.18a22.55,22.55,0,0,1-4.22-1.45,8.19,8.19,0,0,1-3.41-2.67,6.43,6.43,0,0,1-1.14-3.81,7.74,7.74,0,0,1,3.09-6.66,12.18,12.18,0,0,1,7.38-2.26,13.34,13.34,0,0,1,7.13,1.77q2.82,1.74,3.77,6.21h-5a5.13,5.13,0,0,0-2.29-3.28,7.86,7.86,0,0,0-3.72-.81,7.17,7.17,0,0,0-3.76,1,3.22,3.22,0,0,0-1.61,3,3.32,3.32,0,0,0,1.34,2.92A11.62,11.62,0,0,0,451.62,51c1.29.41,2.69.78,4.18,1.12A19.16,19.16,0,0,1,460,53.59a7.24,7.24,0,0,1,4.56,6.94q0,4.77-3.41,7a13.09,13.09,0,0,1-3.8,1.71,16.66,16.66,0,0,1-4.46.57q-10.26,0-11.79-9.12h5a6.56,6.56,0,0,0,2.53,4A8,8,0,0,0,453.18,66Z" transform="translate(-0.95)"/><path d="M471.31,69V18.67H476V44.53a12.43,12.43,0,0,1,3.76-4,9.6,9.6,0,0,1,5.56-1.64,12.27,12.27,0,0,1,5.1.9,9.5,9.5,0,0,1,3.28,2.48,12.33,12.33,0,0,1,2.69,8.28V69h-4.7V50.52a8.92,8.92,0,0,0-1.31-4.93,4.73,4.73,0,0,0-4.32-2,10.68,10.68,0,0,0-4.9,1,8.14,8.14,0,0,0-3.05,2.75c-1.4,2.13-2.11,5.25-2.11,9.36V69Z" transform="translate(-0.95)"/><path d="M511.07,31.38A3,3,0,0,1,506,33.49a3,3,0,0,1,0-4.22,3,3,0,0,1,5.09,2.11ZM505.77,69V39.46h4.7V69Z" transform="translate(-0.95)"/><path d="M516.44,39.46h5.09l8.52,21.93,8.45-21.93h5.09L530.05,71.78Z" transform="translate(-0.95)"/><path d="M572.76,69v-5c-.26.34-.54.68-.84,1a13.63,13.63,0,0,1-20.58,0,16.21,16.21,0,0,1,0-21.46,13.63,13.63,0,0,1,20.58,0q.45.5.84,1v-5h4.7V69Zm-3-22.26a10.14,10.14,0,0,0-14.82,0,11,11,0,0,0,0,15,10.14,10.14,0,0,0,14.82,0,11,11,0,0,0,0-15Z" transform="translate(-0.95)"/><path d="M591.51,81.07a8.59,8.59,0,0,1-3.29,3.32,7.38,7.38,0,0,1-4,.87,7,7,0,0,1-3.42-1V79.76a4.77,4.77,0,0,0,2.11,1.11,3.93,3.93,0,0,0,2.42-.17q2.85-1.14,2.85-6V39.46h4.69V74.6A12.81,12.81,0,0,1,591.51,81.07Zm1.17-47.51a3.08,3.08,0,1,1,.87-2.15A2.93,2.93,0,0,1,592.68,33.56Z" transform="translate(-0.95)"/><path d="M608.91,31.38a2.84,2.84,0,0,1-.88,2.11,3,3,0,1,1,0-4.22A2.84,2.84,0,0,1,608.91,31.38ZM603.61,69V39.46h4.69V69Z" transform="translate(-0.95)"/><circle cx="88.18" cy="53.6" r="15.65"/></svg>